<svg id="Layer_1" data-name="Layer 1" xmlns="http://www.w3.org/2000/svg" xmlns:xlink="http://www.w3.org/1999/xlink" viewBox="10 0 140 50">
    <defs>
        <style>
            .cls-1,
            .cls-2 {
                fill-rule: evenodd;
            }

            .cls-1 {
                fill: url(#GradientFill_1);
            }

            .cls-2 {
                fill: #182a33;
            }
        </style>
        <linearGradient id="GradientFill_1" x1="49.84" y1="32.19" x2="147.65" y2="-13.68" gradientUnits="userSpaceOnUse">
            <stop offset="0" stop-color="#4eb7e9" />
            <stop offset="1" stop-color="#7bbf4b" />
        </linearGradient>
    </defs>
    <path class="cls-1" d="M14.4,8.31l26,45H50l9.89-17.13-4.8-8.32L45.18,45,19.2,0H0L4.8,8.31Zm59.19,45-26-45H43.2L38.4,0h14l26,45L97.71,11.63h9.6L88,45h30.44L139.66,8.31H90L94.82,0h59.24L123.28,53.32ZM68.5,21.24,76,8.31h4.45L85.22,0h-14L63.7,12.93Z" />
    <!-- <path class="cls-2" d="M201.58,42.73,188.52,10.59h8.2L205.15,33l9-22.41h5.38l9,22.41,8.27-22.41h7.09L231,42.73h-5.33L216.38,20,207,42.73Zm58.36-6.16h25.91v-20H259.94V36.57Zm-7.83-18.38c0-2.94.57-4.93,1.71-6s3.35-1.6,6.64-1.6h24.87q5,0,6.66,1.6c1.12,1.07,1.68,3.06,1.68,6V35.13q0,4.41-1.72,6c-1.15,1.06-3.36,1.6-6.62,1.6H260.46c-3.29,0-5.5-.54-6.64-1.6s-1.71-3.06-1.71-6V18.19Zm80.69-2.05H314.93V25H332.8a4.83,4.83,0,0,0,2.8-.6,2.4,2.4,0,0,0,.76-2v-3.7a2.4,2.4,0,0,0-.76-2,4.85,4.85,0,0,0-2.8-.59ZM307.18,42.73V10.59h28.95q4,0,5.75,1.47c1.17,1,1.77,2.57,1.77,4.79v7.54c0,2.19-.6,3.76-1.77,4.72s-3.11,1.46-5.75,1.46h-4.41L347,42.73H335.76L322.3,30.57h-7.37V42.73Zm49.37,0V10.59h7.9v13l18.73-13h11.36L372.32,25.47l24.73,17.26h-12.4l-20.2-14.51V42.73Zm84.44-6h10.1c5.52,0,9.38-.79,11.59-2.4S466,30,466,26.19c0-3.3-.91-5.77-2.75-7.39s-4.64-2.44-8.43-2.44H441V36.72Zm-7.91,6V10.59h21.64q9.33,0,14.32,4.14c3.34,2.76,5,6.7,5,11.81q0,8.1-5.29,12.15t-16,4Zm52.72,0V10.59h7.82V42.73Zm53.64-26.21H515V36.57h24.47V29.74H526.67V24h20.44V35.13q0,4.41-1.72,6c-1.16,1.06-3.36,1.6-6.63,1.6H515.49c-3.27,0-5.47-.54-6.62-1.6s-1.72-3.06-1.72-6v-17c0-2.92.57-4.92,1.72-6s3.35-1.6,6.62-1.6h23.27q4.88,0,6.6,1.56c1.17,1,1.75,2.92,1.75,5.66v.83l-7.67,1.29V16.52Zm21,26.21V10.59h7.82V42.73Zm41.25-26.37V42.73H593.9V16.36H578.4V10.59h38.9v5.77ZM617,42.73h7.83l4-7.07h21.25l4,7.07H663L643.59,10.59h-7.53L617,42.73ZM632.2,29.81l7.24-13.4,7.48,13.4Zm38.73,12.92V10.59h7.9V36.72h25.23v6Z" /> -->
</svg>
